<?xml version="1.0" encoding="UTF-8"?>
<svg width="27px" height="27px" viewBox="0 0 27 27" version="1.1" xmlns="http://www.w3.org/2000/svg" xmlns:xlink="http://www.w3.org/1999/xlink">
    <!-- Generator: Sketch 46.2 (44496) - http://www.bohemiancoding.com/sketch -->
    <title>noun_488540_cc</title>
    <desc>Created with Sketch.</desc>
    <defs></defs>
    <g id="Page-1" stroke="none" stroke-width="1" fill="none" fill-rule="evenodd">
        <g id="produto" transform="translate(-602.000000, -148.000000)" stroke-width="0.5" stroke="#606062" fill="#606062" fill-rule="nonzero">
            <g id="menu" transform="translate(81.000000, 149.000000)">
                <g id="Group-3">
                    <g id="Group-5" transform="translate(456.400000, 0.000000)">
                        <g id="noun_488540_cc" transform="translate(65.000000, 0.000000)">
                            <path d="M25.4460357,18.8669351 C25.4074866,18.7738703 25.3333845,18.6997873 25.2403159,18.6612647 C25.1938805,18.6420472 25.1445856,18.6319745 25.0951044,18.6319745 L19.9291271,18.6319745 L25.3636216,13.19748 C25.3638307,13.1972481 25.3639942,13.1971074 25.3642034,13.1968754 L25.6327928,12.9283088 L25.3642034,12.6597422 C25.3639942,12.6595103 25.3638307,12.6593696 25.3636216,12.6591376 L19.9291271,7.22464317 L25.0951044,7.22464317 C25.1446084,7.22464317 25.1939033,7.21452486 25.2403654,7.19530731 C25.3333845,7.15678095 25.4074866,7.08270174 25.4460129,6.98968256 C25.4844442,6.89675844 25.4844708,6.79203914 25.4460357,6.69911502 C25.4267041,6.65242101 25.3988284,6.61036598 25.3636216,6.5752276 L19.2802933,0.491922151 C19.2451778,0.456738139 19.2030809,0.428843411 19.1564059,0.409534602 C19.0635274,0.371148932 18.9588575,0.371148932 18.865979,0.409534602 C18.7729142,0.448060962 18.6988084,0.522140171 18.6602592,0.615204983 C18.6410455,0.661667043 18.63095,0.711007554 18.63095,0.760488754 L18.63095,5.92646605 L13.1963833,0.491922151 C13.1961742,0.491690202 13.1960106,0.491549511 13.1958015,0.491317562 L12.9272843,0.22280039 L12.6587634,0.491321365 C12.6585542,0.491553314 12.6583907,0.491694004 12.6581816,0.491925953 L7.22361868,5.92646605 L7.22361868,0.760488754 C7.22361868,0.711007554 7.2135232,0.661667043 7.19430564,0.615204983 C7.15575647,0.522140171 7.08165445,0.448057159 6.98858583,0.409534602 C6.89570734,0.371148932 6.79103747,0.371148932 6.69815898,0.409534602 C6.65148778,0.428843411 6.60938713,0.456741941 6.57427156,0.491922151 L0.490943297,6.5752276 C0.45573647,6.61036598 0.427864558,6.65241721 0.408529131,6.69911502 C0.370097832,6.79203914 0.370120646,6.89675844 0.408551946,6.98968256 C0.447078306,7.08270174 0.52118033,7.15678095 0.614199512,7.19530731 C0.660665375,7.21452486 0.709960256,7.22464317 0.759464272,7.22464317 L5.92544157,7.22464317 L0.490943297,12.6591376 C0.490734163,12.6593696 0.490570658,12.6595103 0.490361523,12.6597422 L0.221775908,12.9283088 L0.490365326,13.1968754 C0.49057446,13.1971074 0.490737965,13.1972481 0.4909471,13.19748 L5.92544157,18.6319745 L0.759464272,18.6319745 C0.709983071,18.6319745 0.66068819,18.6420472 0.614248944,18.6612647 C0.521184133,18.6997911 0.447078306,18.7738703 0.408529131,18.8669351 C0.370097832,18.9598592 0.370120646,19.0645785 0.408551946,19.1575026 C0.427860755,19.2041966 0.455732668,19.2462517 0.490939495,19.2813901 L6.57427536,25.3646955 C6.60939093,25.3998795 6.65148778,25.4277286 6.69811335,25.4470374 C6.74457541,25.466255 6.79387029,25.4763733 6.84337431,25.4763733 C6.89287832,25.4763733 6.9421732,25.466255 6.98863526,25.4470374 C7.08165445,25.4085111 7.15575647,25.3344318 7.19428283,25.2414127 C7.21350038,25.1949506 7.22361868,25.1456101 7.22361868,25.0961289 L7.22361868,19.9301516 L12.6581854,25.3646955 C12.6583945,25.3649274 12.658558,25.3650681 12.6587672,25.3653001 L12.9272843,25.6338173 L13.1958053,25.3652963 C13.1960144,25.3650643 13.196178,25.3649236 13.1963871,25.3646917 L18.63095,19.9301516 L18.63095,25.0961289 C18.63095,25.1456101 18.6410683,25.1949506 18.6602859,25.2414127 C18.6988122,25.3344318 18.7729142,25.4085111 18.8659334,25.4470374 C18.9123955,25.466255 18.9616904,25.4763733 19.0111944,25.4763733 C19.0606984,25.4763733 19.1099933,25.466255 19.1564553,25.4470374 C19.2030809,25.4277286 19.2451816,25.3998795 19.2802933,25.3646955 L25.3636216,19.2813901 C25.3988284,19.2462517 25.4267003,19.2042004 25.4460091,19.1575026 C25.484448,19.0645785 25.4844708,18.9598592 25.4460357,18.8669351 Z M24.1771717,19.3924632 L19.3914388,24.1781962 L19.3914388,19.3924632 L24.1771717,19.3924632 Z M13.3075287,7.76233153 L18.0932616,12.5480644 L13.3075287,12.5480644 L13.3075287,7.76233153 Z M12.54704,12.5480644 L7.76130705,12.5480644 L12.54704,7.76233153 L12.54704,12.5480644 Z M12.54704,13.3085532 L12.54704,18.0942861 L7.76130705,13.3085532 L12.54704,13.3085532 Z M13.3075287,13.3085532 L18.0932616,13.3085532 L13.3075287,18.0942861 L13.3075287,13.3085532 Z M13.8452171,7.22464317 L18.63095,7.22464317 L18.63095,12.0103761 L13.8452171,7.22464317 Z M7.22361868,12.0103761 L7.22361868,7.22464317 L12.0093516,7.22464317 L7.22361868,12.0103761 Z M12.0093516,18.6319745 L7.22361868,18.6319745 L7.22361868,13.8462416 L12.0093516,18.6319745 Z M18.63095,13.8462416 L18.63095,18.6319745 L13.8452171,18.6319745 L18.63095,13.8462416 Z M24.1771717,13.3085532 L19.3914388,18.0942861 L19.3914388,13.3085532 L24.1771717,13.3085532 Z M19.3914388,12.5480644 L19.3914388,7.76233153 L24.1771717,12.5480644 L19.3914388,12.5480644 Z M13.3075287,6.46415441 L13.3075287,1.6784215 L18.0932616,6.46415441 L13.3075287,6.46415441 Z M12.54704,6.46415441 L7.76130705,6.46415441 L12.54704,1.6784215 L12.54704,6.46415441 Z M6.46312993,12.5480644 L1.67739701,12.5480644 L6.46312993,7.76233153 L6.46312993,12.5480644 Z M6.46312993,13.3085532 L6.46312993,18.0942861 L1.67739701,13.3085532 L6.46312993,13.3085532 Z M12.54704,19.3924632 L12.54704,24.1781962 L7.76130705,19.3924632 L12.54704,19.3924632 Z M13.3075287,19.3924632 L18.0932616,19.3924632 L13.3075287,24.1781962 L13.3075287,19.3924632 Z M19.3914388,6.46415441 L19.3914388,1.6784215 L24.1771717,6.46415441 L19.3914388,6.46415441 Z M6.46312993,6.46415441 L1.67739701,6.46415441 L6.46312993,1.6784215 L6.46312993,6.46415441 Z M6.46312993,19.3924632 L6.46312993,24.1781962 L1.67739701,19.3924632 L6.46312993,19.3924632 Z" id="Shape"></path>
                        </g>
                    </g>
                </g>
            </g>
        </g>
    </g>
</svg>