<?xml version="1.0" encoding="UTF-8"?>
<svg width="27px" height="26px" viewBox="0 0 27 26" version="1.1" xmlns="http://www.w3.org/2000/svg" xmlns:xlink="http://www.w3.org/1999/xlink">
    <!-- Generator: Sketch 46.2 (44496) - http://www.bohemiancoding.com/sketch -->
    <title>noun_1036560_cc</title>
    <desc>Created with Sketch.</desc>
    <defs></defs>
    <g id="Page-1" stroke="none" stroke-width="1" fill="none" fill-rule="evenodd">
        <g id="produto" transform="translate(-792.000000, -149.000000)" fill-rule="nonzero" fill="#46A6AF">
            <g id="menu" transform="translate(81.000000, 149.000000)">
                <g id="Group-3">
                    <g id="Group-6" transform="translate(690.600000, 0.000000)">
                        <g id="noun_1036560_cc" transform="translate(21.000000, 0.000000)">
                            <path d="M0.473654088,12.3150063 L11.8413522,12.3150063 C12.1028093,12.3150063 12.3150063,12.1032829 12.3150063,11.8413522 L12.3150063,0.473654088 C12.3150063,0.211723378 12.1028093,0 11.8413522,0 L0.473654088,0 C0.212197032,0 0,0.211723378 0,0.473654088 L0,11.8413522 C0,12.1032829 0.212197032,12.3150063 0.473654088,12.3150063 Z M0.947308177,11.3676981 L0.947308177,9.47308177 L11.3676981,9.47308177 L11.3676981,11.3676981 L0.947308177,11.3676981 Z M11.3676981,6.63115724 L11.3676981,8.52577359 L0.947308177,8.52577359 L0.947308177,6.63115724 L11.3676981,6.63115724 Z M0.947308177,5.68384906 L0.947308177,3.78923271 L11.3676981,3.78923271 L11.3676981,5.68384906 L0.947308177,5.68384906 Z M11.3676981,0.947308177 L11.3676981,2.84192453 L0.947308177,2.84192453 L0.947308177,0.947308177 L11.3676981,0.947308177 Z" id="Shape"></path>
                            <path d="M13.7359686,25.5773208 L25.1036667,25.5773208 C25.3651237,25.5773208 25.5773208,25.3655974 25.5773208,25.1036667 L25.5773208,13.7359686 C25.5773208,13.4740379 25.3651237,13.2623145 25.1036667,13.2623145 L13.7359686,13.2623145 C13.4745115,13.2623145 13.2623145,13.4740379 13.2623145,13.7359686 L13.2623145,25.1036667 C13.2623145,25.3655974 13.4745115,25.5773208 13.7359686,25.5773208 Z M14.2096227,24.6300126 L14.2096227,22.7353962 L24.6300126,22.7353962 L24.6300126,24.6300126 L14.2096227,24.6300126 Z M24.6300126,19.8934717 L24.6300126,21.7880881 L14.2096227,21.7880881 L14.2096227,19.8934717 L24.6300126,19.8934717 Z M14.2096227,18.9461635 L14.2096227,17.0515472 L24.6300126,17.0515472 L24.6300126,18.9461635 L14.2096227,18.9461635 Z M24.6300126,14.2096227 L24.6300126,16.104239 L14.2096227,16.104239 L14.2096227,14.2096227 L24.6300126,14.2096227 Z" id="Shape-Copy"></path>
                            <path d="M25.5773208,0.473654088 C25.5773208,0.211723378 25.3651237,0 25.1036667,0 L13.7359686,0 C13.4745115,0 13.2623145,0.211723378 13.2623145,0.473654088 L13.2623145,11.8413522 C13.2623145,12.1032829 13.4745115,12.3150063 13.7359686,12.3150063 L25.1036667,12.3150063 C25.3651237,12.3150063 25.5773208,12.1032829 25.5773208,11.8413522 L25.5773208,0.473654088 Z M19.8934717,0.947308177 L21.7880881,0.947308177 L21.7880881,11.3676981 L19.8934717,11.3676981 L19.8934717,0.947308177 Z M18.9461635,11.3676981 L17.0515472,11.3676981 L17.0515472,0.947308177 L18.9461635,0.947308177 L18.9461635,11.3676981 Z M14.2096227,0.947308177 L16.104239,0.947308177 L16.104239,11.3676981 L14.2096227,11.3676981 L14.2096227,0.947308177 Z M24.6300126,11.3676981 L22.7353962,11.3676981 L22.7353962,0.947308177 L24.6300126,0.947308177 L24.6300126,11.3676981 Z" id="Shape"></path>
                            <path d="M0.473654088,25.5773208 L11.8413522,25.5773208 C12.1028093,25.5773208 12.3150063,25.3655974 12.3150063,25.1036667 L12.3150063,13.7359686 C12.3150063,13.4740379 12.1028093,13.2623145 11.8413522,13.2623145 L0.473654088,13.2623145 C0.212197032,13.2623145 0,13.4740379 0,13.7359686 L0,25.1036667 C0,25.3655974 0.212197032,25.5773208 0.473654088,25.5773208 Z M5.68384906,24.6300126 L3.78923271,24.6300126 L3.78923271,14.2096227 L5.68384906,14.2096227 L5.68384906,24.6300126 Z M6.63115724,14.2096227 L8.52577359,14.2096227 L8.52577359,24.6300126 L6.63115724,24.6300126 L6.63115724,14.2096227 Z M11.3676981,24.6300126 L9.47308177,24.6300126 L9.47308177,14.2096227 L11.3676981,14.2096227 L11.3676981,24.6300126 Z M0.947308177,14.2096227 L2.84192453,14.2096227 L2.84192453,24.6300126 L0.947308177,24.6300126 L0.947308177,14.2096227 Z" id="Shape"></path>
                        </g>
                    </g>
                </g>
            </g>
        </g>
    </g>
</svg>