<?xml version="1.0" encoding="UTF-8"?>
<svg width="26px" height="25px" viewBox="0 0 26 25" version="1.1" xmlns="http://www.w3.org/2000/svg" xmlns:xlink="http://www.w3.org/1999/xlink">
    <!-- Generator: Sketch 46.2 (44496) - http://www.bohemiancoding.com/sketch -->
    <title>noun_1036560_cc</title>
    <desc>Created with Sketch.</desc>
    <defs></defs>
    <g id="Page-1" stroke="none" stroke-width="1" fill="none" fill-rule="evenodd">
        <g id="HOME-" transform="translate(-792.000000, -149.000000)" fill-rule="nonzero" fill="#606062">
            <g id="menu" transform="translate(81.000000, 149.000000)">
                <g id="Group-3">
                    <g id="Group-6" transform="translate(690.600000, 0.000000)">
                        <g id="noun_1036560_cc" transform="translate(21.000000, 0.000000)">
                            <path d="M0.461538462,12 L11.5384615,12 C11.7932308,12 12,11.7936923 12,11.5384615 L12,0.461538462 C12,0.206307692 11.7932308,0 11.5384615,0 L0.461538462,0 C0.206769231,0 0,0.206307692 0,0.461538462 L0,11.5384615 C0,11.7936923 0.206769231,12 0.461538462,12 Z M0.923076923,11.0769231 L0.923076923,9.23076923 L11.0769231,9.23076923 L11.0769231,11.0769231 L0.923076923,11.0769231 Z M11.0769231,6.46153846 L11.0769231,8.30769231 L0.923076923,8.30769231 L0.923076923,6.46153846 L11.0769231,6.46153846 Z M0.923076923,5.53846154 L0.923076923,3.69230769 L11.0769231,3.69230769 L11.0769231,5.53846154 L0.923076923,5.53846154 Z M11.0769231,0.923076923 L11.0769231,2.76923077 L0.923076923,2.76923077 L0.923076923,0.923076923 L11.0769231,0.923076923 Z" id="Shape"></path>
                            <path d="M13.4615385,25 L24.5384615,25 C24.7932308,25 25,24.7936923 25,24.5384615 L25,13.4615385 C25,13.2063077 24.7932308,13 24.5384615,13 L13.4615385,13 C13.2067692,13 13,13.2063077 13,13.4615385 L13,24.5384615 C13,24.7936923 13.2067692,25 13.4615385,25 Z M13.9230769,24.0769231 L13.9230769,22.2307692 L24.0769231,22.2307692 L24.0769231,24.0769231 L13.9230769,24.0769231 Z M24.0769231,19.4615385 L24.0769231,21.3076923 L13.9230769,21.3076923 L13.9230769,19.4615385 L24.0769231,19.4615385 Z M13.9230769,18.5384615 L13.9230769,16.6923077 L24.0769231,16.6923077 L24.0769231,18.5384615 L13.9230769,18.5384615 Z M24.0769231,13.9230769 L24.0769231,15.7692308 L13.9230769,15.7692308 L13.9230769,13.9230769 L24.0769231,13.9230769 Z" id="Shape-Copy"></path>
                            <path d="M25,0.461538462 C25,0.206307692 24.7932308,0 24.5384615,0 L13.4615385,0 C13.2067692,0 13,0.206307692 13,0.461538462 L13,11.5384615 C13,11.7936923 13.2067692,12 13.4615385,12 L24.5384615,12 C24.7932308,12 25,11.7936923 25,11.5384615 L25,0.461538462 Z M19.4615385,0.923076923 L21.3076923,0.923076923 L21.3076923,11.0769231 L19.4615385,11.0769231 L19.4615385,0.923076923 Z M18.5384615,11.0769231 L16.6923077,11.0769231 L16.6923077,0.923076923 L18.5384615,0.923076923 L18.5384615,11.0769231 Z M13.9230769,0.923076923 L15.7692308,0.923076923 L15.7692308,11.0769231 L13.9230769,11.0769231 L13.9230769,0.923076923 Z M24.0769231,11.0769231 L22.2307692,11.0769231 L22.2307692,0.923076923 L24.0769231,0.923076923 L24.0769231,11.0769231 Z" id="Shape"></path>
                            <path d="M0.461538462,25 L11.5384615,25 C11.7932308,25 12,24.7936923 12,24.5384615 L12,13.4615385 C12,13.2063077 11.7932308,13 11.5384615,13 L0.461538462,13 C0.206769231,13 0,13.2063077 0,13.4615385 L0,24.5384615 C0,24.7936923 0.206769231,25 0.461538462,25 Z M5.53846154,24.0769231 L3.69230769,24.0769231 L3.69230769,13.9230769 L5.53846154,13.9230769 L5.53846154,24.0769231 Z M6.46153846,13.9230769 L8.30769231,13.9230769 L8.30769231,24.0769231 L6.46153846,24.0769231 L6.46153846,13.9230769 Z M11.0769231,24.0769231 L9.23076923,24.0769231 L9.23076923,13.9230769 L11.0769231,13.9230769 L11.0769231,24.0769231 Z M0.923076923,13.9230769 L2.76923077,13.9230769 L2.76923077,24.0769231 L0.923076923,24.0769231 L0.923076923,13.9230769 Z" id="Shape"></path>
                        </g>
                    </g>
                </g>
            </g>
        </g>
    </g>
</svg>