<?xml version="1.0" encoding="UTF-8"?>
<svg width="26px" height="26px" viewBox="0 0 26 26" version="1.1" xmlns="http://www.w3.org/2000/svg" xmlns:xlink="http://www.w3.org/1999/xlink">
    <!-- Generator: Sketch 46.2 (44496) - http://www.bohemiancoding.com/sketch -->
    <title>noun_940358_cc</title>
    <desc>Created with Sketch.</desc>
    <defs></defs>
    <g id="Page-1" stroke="none" stroke-width="1" fill="none" fill-rule="evenodd">
        <g id="produto" transform="translate(-992.000000, -149.000000)" fill="#606062">
            <g id="menu" transform="translate(81.000000, 149.000000)">
                <g id="Group-3">
                    <g id="Group-7" transform="translate(837.800000, 0.000000)">
                        <g id="noun_940358_cc" transform="translate(73.000000, 0.000000)">
                            <g id="Group">
                                <polyline id="Shape" fill-rule="nonzero" points="11.2272727 25.7310345 9.45454545 22.6229885 11.2272727 19.4850575 14.7727273 19.4850575 16.575 22.6229885 14.7727273 25.7310345 11.2272727 25.7310345"></polyline>
                                <polyline id="Shape" fill-rule="nonzero" points="19.0863636 11.983908 17.3136364 8.87586207 19.0863636 5.76781609 22.6318182 5.76781609 24.4045455 8.87586207 22.6318182 11.983908 19.0863636 11.983908"></polyline>
                                <polyline id="Shape" fill-rule="nonzero" points="3.39772727 11.983908 1.625 8.87586207 3.39772727 5.76781609 6.94318182 5.76781609 8.71590909 8.87586207 6.94318182 11.983908 3.39772727 11.983908"></polyline>
                                <path d="M1.27045455,18.0206897 L3.22045455,21.4275862 L7.12045455,21.4275862 L9.07045455,18.0206897 L7.12045455,14.6137931 L3.22045455,14.6137931 L1.27045455,18.0206897 M2.71818182,22.3241379 L0.265909091,18.0206897 L2.71818182,13.7471264 L7.62272727,13.7471264 L10.0454545,18.0206897 L7.59318182,22.2942529 L2.71818182,22.2942529" id="Shape" fill-rule="nonzero"></path>
                                <path d="M18.9090909,14.6137931 L16.9590909,18.0206897 L18.9090909,21.4275862 L22.8090909,21.4275862 L24.7590909,18.0206897 L22.8090909,14.6137931 L18.9090909,14.6137931 M18.4068182,22.3241379 L15.9545455,18.0206897 L18.4068182,13.7471264 L23.3113636,13.7471264 L25.7636364,18.0206897 L23.3113636,22.2942529 L18.4068182,22.2942529" id="Shape" fill-rule="nonzero"></path>
                                <path d="M9.12954545,4.27356322 L11.0795455,7.68045977 L14.9795455,7.68045977 L16.9295455,4.27356322 L14.95,0.866666667 L11.0795455,0.866666667 L9.12954545,4.27356322 M10.5477273,8.57701149 L8.09545455,4.30344828 L10.5477273,0 L15.4522727,0 L17.9045455,4.27356322 L15.4522727,8.54712644 L10.5477273,8.54712644" id="Shape" fill-rule="nonzero"></path>
                                <polyline id="Shape" fill-rule="nonzero" points="10.9022727 17.154023 8.775 13.4482759 10.9022727 9.74252874 15.1272727 9.74252874 17.225 13.4482759 15.1272727 17.154023 10.9022727 17.154023"></polyline>
                                <path d="M11.0882353,1.14705882 L12.2352941,2.29411765" id="Line" stroke="#606062" stroke-linecap="square"></path>
                                <path d="M2.67647059,14.9117647 L3.82352941,16.0588235" id="Line-Copy-2" stroke="#606062" stroke-linecap="square"></path>
                                <path d="M18.7352941,14.9117647 L19.8823529,16.0588235" id="Line-Copy-4" stroke="#606062" stroke-linecap="square"></path>
                                <path d="M10.3235294,2.67647059 L11.4705882,3.82352941" id="Line-Copy" stroke="#606062" stroke-linecap="square"></path>
                                <path d="M1.91176471,16.4411765 L3.05882353,17.5882353" id="Line-Copy-3" stroke="#606062" stroke-linecap="square"></path>
                                <path d="M17.9705882,16.4411765 L19.1176471,17.5882353" id="Line-Copy-5" stroke="#606062" stroke-linecap="square"></path>
                            </g>
                        </g>
                    </g>
                </g>
            </g>
        </g>
    </g>
</svg>