<?xml version="1.0" encoding="UTF-8"?>
<svg width="16px" height="28px" viewBox="0 0 16 28" version="1.1" xmlns="http://www.w3.org/2000/svg" xmlns:xlink="http://www.w3.org/1999/xlink">
    <!-- Generator: Sketch 46.2 (44496) - http://www.bohemiancoding.com/sketch -->
    <title>Page 1</title>
    <desc>Created with Sketch.</desc>
    <defs></defs>
    <g id="Page-1" stroke="none" stroke-width="1" fill="none" fill-rule="evenodd">
        <g id="HOME-" transform="translate(-1071.000000, -149.000000)" stroke="#606062" fill="#606062">
            <g id="menu" transform="translate(81.000000, 149.000000)">
                <g id="Group-3">
                    <g id="Group-7" transform="translate(959.000000, 1.000000)">
                        <g id="Page-1" transform="translate(32.000000, 0.000000)">
                            <path d="M2.6,24.2666667 L2.6,24.7 C2.6,24.9392 2.79456667,25.1333333 3.03333333,25.1333333 L3.46666667,25.1333333 C3.70543333,25.1333333 3.9,24.9392 3.9,24.7 L3.9,24.2666667 L2.6,24.2666667 Z M3.46666667,26 L3.03333333,26 C2.3166,26 1.73333333,25.4167333 1.73333333,24.7 L1.73333333,23.8333333 C1.73333333,23.5937 1.92746667,23.4 2.16666667,23.4 L4.33333333,23.4 C4.57253333,23.4 4.76666667,23.5937 4.76666667,23.8333333 L4.76666667,24.7 C4.76666667,25.4167333 4.1834,26 3.46666667,26 L3.46666667,26 Z" id="Fill-1" stroke-width="0.5"></path>
                            <path d="M9.96666667,24.2666667 L9.96666667,24.7 C9.96666667,24.9392 10.1608,25.1333333 10.4,25.1333333 L10.8333333,25.1333333 C11.0725333,25.1333333 11.2666667,24.9392 11.2666667,24.7 L11.2666667,24.2666667 L9.96666667,24.2666667 Z M10.8333333,26 L10.4,26 C9.68326667,26 9.1,25.4167333 9.1,24.7 L9.1,23.8333333 C9.1,23.5937 9.2937,23.4 9.53333333,23.4 L11.7,23.4 C11.9396333,23.4 12.1333333,23.5937 12.1333333,23.8333333 L12.1333333,24.7 C12.1333333,25.4167333 11.5500667,26 10.8333333,26 L10.8333333,26 Z" id="Fill-3" stroke-width="0.5"></path>
                            <path d="M13.4333333,9.53333333 L0.433333333,9.53333333 C0.194133333,9.53333333 0,9.3392 0,9.1 C0,8.8608 0.194133333,8.66666667 0.433333333,8.66666667 L13.4333333,8.66666667 C13.6729667,8.66666667 13.8666667,8.8608 13.8666667,9.1 C13.8666667,9.3392 13.6729667,9.53333333 13.4333333,9.53333333" id="Fill-5" stroke-width="0.5"></path>
                            <path d="M3.16666667,14.8666667 C2.92746667,14.8666667 2.73333333,14.6729667 2.73333333,14.4333333 L2.73333333,11.8333333 C2.73333333,11.5941333 2.92746667,11.4 3.16666667,11.4 C3.40586667,11.4 3.6,11.5941333 3.6,11.8333333 L3.6,14.4333333 C3.6,14.6729667 3.40586667,14.8666667 3.16666667,14.8666667" id="Fill-7" stroke-width="0.5"></path>
                            <path d="M3.16666667,6.8 C2.92746667,6.8 2.73333333,6.60586667 2.73333333,6.36666667 L2.73333333,3.76666667 C2.73333333,3.52746667 2.92746667,3.33333333 3.16666667,3.33333333 C3.40586667,3.33333333 3.6,3.52746667 3.6,3.76666667 L3.6,6.36666667 C3.6,6.60586667 3.40586667,6.8 3.16666667,6.8" id="Fill-9" stroke-width="0.5"></path>
                            <path d="M1.73333333,0.866666667 C1.25536667,0.866666667 0.866666667,1.25536667 0.866666667,1.73333333 L0.866666667,22.5333333 C0.866666667,23.0113 1.25536667,23.4 1.73333333,23.4 L12.1333333,23.4 C12.6113,23.4 13,23.0113 13,22.5333333 L13,1.73333333 C13,1.25536667 12.6113,0.866666667 12.1333333,0.866666667 L1.73333333,0.866666667 Z M12.1333333,24.2666667 L1.73333333,24.2666667 C0.7774,24.2666667 0,23.4892667 0,22.5333333 L0,1.73333333 C0,0.7774 0.7774,0 1.73333333,0 L12.1333333,0 C13.0892667,0 13.8666667,0.7774 13.8666667,1.73333333 L13.8666667,22.5333333 C13.8666667,23.4892667 13.0892667,24.2666667 12.1333333,24.2666667 L12.1333333,24.2666667 Z" id="Fill-11" stroke-width="0.5"></path>
                            <path d="M2.6,22.5333333 C2.3608,22.5333333 2.16666667,22.3396333 2.16666667,22.1 L2.16666667,21.2333333 C2.16666667,20.9937 2.3608,20.8 2.6,20.8 C2.8392,20.8 3.03333333,20.9937 3.03333333,21.2333333 L3.03333333,22.1 C3.03333333,22.3396333 2.8392,22.5333333 2.6,22.5333333" id="Fill-13" stroke-width="0.3"></path>
                            <path d="M4.33333333,22.5333333 C4.09413333,22.5333333 3.9,22.3396333 3.9,22.1 L3.9,21.2333333 C3.9,20.9937 4.09413333,20.8 4.33333333,20.8 C4.57253333,20.8 4.76666667,20.9937 4.76666667,21.2333333 L4.76666667,22.1 C4.76666667,22.3396333 4.57253333,22.5333333 4.33333333,22.5333333" id="Fill-15" stroke-width="0.3"></path>
                            <path d="M6.06666667,22.5333333 C5.82746667,22.5333333 5.63333333,22.3396333 5.63333333,22.1 L5.63333333,21.2333333 C5.63333333,20.9937 5.82746667,20.8 6.06666667,20.8 C6.30586667,20.8 6.5,20.9937 6.5,21.2333333 L6.5,22.1 C6.5,22.3396333 6.30586667,22.5333333 6.06666667,22.5333333" id="Fill-17" stroke-width="0.3"></path>
                            <path d="M7.8,22.5333333 C7.56036667,22.5333333 7.36666667,22.3396333 7.36666667,22.1 L7.36666667,21.2333333 C7.36666667,20.9937 7.56036667,20.8 7.8,20.8 C8.03963333,20.8 8.23333333,20.9937 8.23333333,21.2333333 L8.23333333,22.1 C8.23333333,22.3396333 8.03963333,22.5333333 7.8,22.5333333" id="Fill-19" stroke-width="0.3"></path>
                            <path d="M9.53333333,22.5333333 C9.2937,22.5333333 9.1,22.3396333 9.1,22.1 L9.1,21.2333333 C9.1,20.9937 9.2937,20.8 9.53333333,20.8 C9.77296667,20.8 9.96666667,20.9937 9.96666667,21.2333333 L9.96666667,22.1 C9.96666667,22.3396333 9.77296667,22.5333333 9.53333333,22.5333333" id="Fill-21" stroke-width="0.3"></path>
                            <path d="M11.2666667,22.5333333 C11.0270333,22.5333333 10.8333333,22.3396333 10.8333333,22.1 L10.8333333,21.2333333 C10.8333333,20.9937 11.0270333,20.8 11.2666667,20.8 C11.5063,20.8 11.7,20.9937 11.7,21.2333333 L11.7,22.1 C11.7,22.3396333 11.5063,22.5333333 11.2666667,22.5333333" id="Fill-23" stroke-width="0.3"></path>
                        </g>
                    </g>
                </g>
            </g>
        </g>
    </g>
</svg>