<?xml version="1.0" encoding="UTF-8"?>
<svg width="21px" height="28px" viewBox="0 0 21 28" version="1.1" xmlns="http://www.w3.org/2000/svg" xmlns:xlink="http://www.w3.org/1999/xlink">
    <!-- Generator: Sketch 46.2 (44496) - http://www.bohemiancoding.com/sketch -->
    <title>noun_525924_cc</title>
    <desc>Created with Sketch.</desc>
    <defs></defs>
    <g id="Page-1" stroke="none" stroke-width="1" fill="none" fill-rule="evenodd">
        <g id="HOME-" transform="translate(-1185.000000, -148.000000)" fill-rule="nonzero" stroke="#606062" fill="#606062">
            <g id="menu" transform="translate(81.000000, 149.000000)">
                <g id="Group-3">
                    <g id="Group-8" transform="translate(1089.000000, 0.000000)">
                        <g id="noun_525924_cc" transform="translate(16.000000, 0.000000)">
                            <g id="Group">
                                <path d="M14.04,0.953333333 L10.9777778,4.01555556 L11.0644444,4.24666667 C11.1222222,4.39111111 11.1511111,4.56444444 11.1511111,4.73777778 C11.1511111,5.60444444 10.4288889,6.32666667 9.56222222,6.32666667 C8.69555556,6.32666667 7.97333333,5.60444444 7.97333333,4.73777778 C7.97333333,3.87111111 8.69555556,3.14888889 9.56222222,3.14888889 C9.70666667,3.14888889 9.85111111,3.17777778 9.99555556,3.20666667 L10.1977778,3.26444444 L13.4622222,0 L6.00888889,0 L0.0288888889,5.98 L0.0288888889,26 L19.0666667,26 L19.0666667,5.98 L14.04,0.953333333 Z M18.2866667,25.2488889 L0.78,25.2488889 L0.78,6.29777778 L6.32666667,0.751111111 L11.6422222,0.751111111 L9.96666667,2.42666667 C9.82222222,2.39777778 9.67777778,2.39777778 9.53333333,2.39777778 C8.23333333,2.39777778 7.19333333,3.43777778 7.19333333,4.73777778 C7.19333333,6.03777778 8.23333333,7.07777778 9.53333333,7.07777778 C10.8333333,7.07777778 11.8733333,6.03777778 11.8733333,4.73777778 C11.8733333,4.56444444 11.8444444,4.39111111 11.8155556,4.24666667 L14.0111111,2.05111111 L18.2866667,6.32666667 L18.2866667,25.2488889 Z" id="Shape"></path>
                                <path d="M6.24,15.2244444 C7.45333333,15.2244444 8.46444444,14.2422222 8.46444444,13 C8.46444444,11.7577778 7.48222222,10.7755556 6.24,10.7755556 C5.02666667,10.7755556 4.01555556,11.7577778 4.01555556,13 C4.01555556,14.2422222 5.02666667,15.2244444 6.24,15.2244444 Z M6.24,11.5555556 C7.04888889,11.5555556 7.68444444,12.22 7.68444444,13 C7.68444444,13.78 7.02,14.4444444 6.24,14.4444444 C5.43111111,14.4444444 4.79555556,13.78 4.79555556,13 C4.79555556,12.22 5.46,11.5555556 6.24,11.5555556 Z" id="Shape" stroke-width="0.5"></path>
                                <path d="M12.8266667,17.3622222 C11.6133333,17.3622222 10.6022222,18.3444444 10.6022222,19.5866667 C10.6022222,20.8288889 11.5844444,21.8111111 12.8266667,21.8111111 C14.04,21.8111111 15.0511111,20.8288889 15.0511111,19.5866667 C15.0511111,18.3444444 14.04,17.3622222 12.8266667,17.3622222 Z M12.8266667,21.0022222 C12.0177778,21.0022222 11.3822222,20.3377778 11.3822222,19.5577778 C11.3822222,18.7488889 12.0466667,18.1133333 12.8266667,18.1133333 C13.6355556,18.1133333 14.2711111,18.7777778 14.2711111,19.5577778 C14.2711111,20.3666667 13.6066667,21.0022222 12.8266667,21.0022222 Z" id="Shape" stroke-width="0.5"></path>
                                <path d="M3.78444444,22.0422222 C3.87111111,22.1288889 3.95777778,22.1577778 4.04444444,22.1577778 C4.13111111,22.1577778 4.24666667,22.1288889 4.30444444,22.0422222 L15.2822222,11.0644444 C15.4266667,10.92 15.4266667,10.6888889 15.2822222,10.5155556 C15.1377778,10.3711111 14.9066667,10.3711111 14.7333333,10.5155556 L3.75555556,21.4933333 C3.61111111,21.6666667 3.61111111,21.8977778 3.78444444,22.0422222 Z" id="Shape" stroke-width="0.5"></path>
                            </g>
                        </g>
                    </g>
                </g>
            </g>
        </g>
    </g>
</svg>