<?xml version="1.0" encoding="UTF-8"?>
<svg width="26px" height="26px" viewBox="0 0 26 26" version="1.1" xmlns="http://www.w3.org/2000/svg" xmlns:xlink="http://www.w3.org/1999/xlink">
    <!-- Generator: Sketch 46.2 (44496) - http://www.bohemiancoding.com/sketch -->
    <title>noun_919868_cc</title>
    <desc>Created with Sketch.</desc>
    <defs></defs>
    <g id="Page-1" stroke="none" stroke-width="1" fill="none" fill-rule="evenodd">
        <g id="produto" transform="translate(-378.000000, -149.000000)" fill-rule="nonzero" fill="#606062">
            <g id="menu" transform="translate(81.000000, 149.000000)">
                <g id="Group-3">
                    <g id="Group-4" transform="translate(243.200000, 0.000000)">
                        <g id="noun_919868_cc" transform="translate(54.000000, 0.000000)">
                            <path d="M23.5293926,0 L3.56505949,0 C2.09539936,0 1.42602379,2.217467 1.42602379,4.27807138 L1.42602379,21.3903569 C1.42602379,23.1312468 0.907236338,24.1180552 0.685917445,24.2429749 C0.304598683,24.25695 0,24.57039 0,24.9554164 C0,25.3492842 0.319144125,25.6684283 0.713011897,25.6684283 L20.677345,25.6684283 C22.1470051,25.6684283 22.8163807,23.4509613 22.8163807,21.3903569 L22.8163807,8.55614277 L23.5293926,8.55614277 C24.9990527,8.55614277 25.6684283,6.33867577 25.6684283,4.27807138 C25.6684283,2.217467 24.9990527,0 23.5293926,0 Z M4.27807138,4.27807138 L4.27807138,21.3903569 C4.27807138,23.1292503 3.76042475,24.1160588 3.53882065,24.2424045 L2.35892856,24.2424045 C2.69261813,23.4381271 2.85204759,22.3954185 2.85204759,21.3903569 L2.85204759,4.27807138 C2.85204759,2.53946317 3.36969423,1.55265471 3.59101312,1.42602379 L4.77318685,1.42602379 C4.43892687,2.23058642 4.27807138,3.2721542 4.27807138,4.27807138 Z M9.98216656,4.27807138 L9.98216656,21.3903569 C9.98216656,23.1292503 9.46451993,24.1160588 9.24291583,24.2424045 L5.20897972,24.2424045 C5.5432397,23.4378419 5.70409518,22.3962741 5.70409518,21.3903569 L5.70409518,4.27807138 C5.70409518,2.53917797 6.22174182,1.5523695 6.44334592,1.42602379 L10.477282,1.42602379 C10.143022,2.23058642 9.98216656,3.2721542 9.98216656,4.27807138 Z M12.8342142,4.27807138 L12.8342142,21.3903569 C12.8342142,23.1292503 12.3165675,24.1160588 12.0949634,24.2424045 L10.9130749,24.2424045 C11.2473349,23.4378419 11.4081904,22.3962741 11.4081904,21.3903569 L11.4081904,4.27807138 C11.4081904,2.53917797 11.925837,1.5523695 12.1474411,1.42602379 L13.3293296,1.42602379 C12.9950696,2.23058642 12.8342142,3.2721542 12.8342142,4.27807138 Z M18.5383093,4.27807138 L18.5383093,21.3903569 C18.5383093,23.1292503 18.0206627,24.1160588 17.7990586,24.2424045 L13.7651225,24.2424045 C14.0993825,23.4378419 14.2602379,22.3962741 14.2602379,21.3903569 L14.2602379,4.27807138 C14.2602379,2.53917797 14.7778846,1.5523695 14.9994887,1.42602379 L19.0334248,1.42602379 C18.6991648,2.23058642 18.5383093,3.2721542 18.5383093,4.27807138 Z M21.3903569,4.27807138 L21.3903569,7.84313087 L21.3903569,21.3903569 C21.3903569,23.1289651 20.8727103,24.1157736 20.6513914,24.2424045 L19.4692177,24.2424045 C19.8034776,23.4378419 19.9643331,22.3962741 19.9643331,21.3903569 L19.9643331,4.27807138 C19.9643331,2.53917797 20.4819798,1.5523695 20.7035839,1.42602379 L21.8854724,1.42602379 C21.5512124,2.23058642 21.3903569,3.2721542 21.3903569,4.27807138 Z M23.5293926,7.11243628 C23.2960951,6.92876441 22.8163807,5.95165291 22.8163807,4.27807138 C22.8163807,2.60448986 23.2960951,1.62737835 23.5293926,1.44370649 C23.7626901,1.62737835 24.2424045,2.60448986 24.2424045,4.27807138 C24.2424045,5.95165291 23.7626901,6.92876441 23.5293926,7.11243628 Z" id="Shape"></path>
                        </g>
                    </g>
                </g>
            </g>
        </g>
    </g>
</svg>