<?xml version="1.0" encoding="UTF-8"?>
<svg width="29px" height="28px" viewBox="0 0 29 28" version="1.1" xmlns="http://www.w3.org/2000/svg" xmlns:xlink="http://www.w3.org/1999/xlink">
    <!-- Generator: Sketch 46.2 (44496) - http://www.bohemiancoding.com/sketch -->
    <title>noun_18127_cc</title>
    <desc>Created with Sketch.</desc>
    <defs></defs>
    <g id="Page-1" stroke="none" stroke-width="1" fill="none" fill-rule="evenodd">
        <g id="responsivo-menu-" transform="translate(-146.000000, -503.000000)" fill-rule="nonzero" fill="#FFFFFF">
            <g id="Group-2" transform="translate(130.000000, 503.000000)">
                <g id="Group-23" transform="translate(16.000000, 0.000000)">
                    <g id="noun_18127_cc">
                        <path d="M28.2945216,27.2347234 L0.464258783,27.2347234 L0.462080988,25.5068493 C0.444314771,22.4867435 0.429643315,19.8804071 4.67680072,18.9063632 L4.90397906,18.8536167 C6.86961036,18.404759 9.31492952,17.8444844 9.71862382,16.9540602 C9.84768678,16.6710748 9.75988729,16.2500144 9.46038326,15.6999929 C6.66237604,10.5809649 6.13844457,6.55765094 7.98979899,3.46725455 C9.26850812,1.33164904 11.597258,0.106860022 14.3797914,0.106860022 C17.140203,0.106860022 19.4548545,1.31250993 20.7284057,3.41883716 C22.5752899,6.46970218 22.0691246,10.5062313 19.3027528,15.6912208 C19.0069166,16.2456853 18.9228996,16.6724419 19.053338,16.9570222 C19.4620756,17.8488135 21.840227,18.392911 23.9359529,18.874009 L24.0819797,18.9077303 C28.327647,19.8817742 28.314351,22.4882245 28.2952094,25.5067353 L28.2945216,27.2347234 Z M2.53843594,25.1688389 L26.2203445,25.1688389 C26.2328381,22.374757 26.1459556,21.4990288 23.6157025,20.92121 L23.4717388,20.8873748 C20.6567677,20.2419995 17.999744,19.6333075 17.1637003,17.8160036 C16.7506071,16.9168073 16.8538804,15.8755487 17.4676745,14.7240123 C19.8790659,10.2063853 20.4043728,6.89156003 18.9470846,4.4845893 C18.0454777,2.99435908 16.4229063,2.17297234 14.3796768,2.17297234 C12.3173055,2.17297234 10.6844183,3.00894126 9.77604881,4.52560168 C8.31509269,6.96333169 8.85151781,10.2606127 11.2872088,14.7151263 C11.9136112,15.8607386 12.0236472,16.9019973 11.6141072,17.8026746 C10.7862015,19.6287506 8.15565522,20.2302654 5.37094401,20.8667547 L5.14365105,20.9195012 C2.61374178,21.4998263 2.52594228,22.3753266 2.53843594,25.1688389 Z" id="Shape"></path>
                    </g>
                </g>
            </g>
        </g>
    </g>
</svg>