<?xml version="1.0" encoding="UTF-8"?>
<!DOCTYPE svg PUBLIC "-//W3C//DTD SVG 1.1//EN" "http://www.w3.org/Graphics/SVG/1.1/DTD/svg11.dtd">
<!-- Creator: CorelDRAW X7 -->
<svg xmlns="http://www.w3.org/2000/svg" xml:space="preserve" width="2.2012mm" height="2.2012mm" version="1.1" style="shape-rendering:geometricPrecision; text-rendering:geometricPrecision; image-rendering:optimizeQuality; fill-rule:evenodd; clip-rule:evenodd"
viewBox="0 0 220 220"
 xmlns:xlink="http://www.w3.org/1999/xlink">
 <defs>
  <style type="text/css">
   <![CDATA[
    .fil0 {fill:#FEFEFE}
    .fil1 {fill:#00A6AF}
   ]]>
  </style>
 </defs>
 <g id="Camada_x0020_1">
  <metadata id="CorelCorpID_0Corel-Layer"/>
  <g id="_731240880">
   <rect class="fil0" width="220" height="220"/>
   <path class="fil1" d="M28 0l164 0 0 220 -164 0 0 -220zm100 51c7,2 12,10 10,17 -1,3 -2,5 -4,7 4,2 7,5 9,9 2,7 -2,15 -9,18 -1,0 -2,0 -2,0 25,35 20,83 18,100l29 0 0 -184 -138 0 0 184 88 0c19,-47 5,-77 -4,-90 0,0 -1,1 -1,2 -5,6 -14,7 -20,2 -3,-3 -5,-7 -5,-11 -3,5 -9,7 -15,6 -8,-2 -12,-9 -10,-17 0,-3 2,-5 4,-7 -4,-1 -8,-4 -9,-9 -2,-7 1,-15 9,-17 2,-1 5,-1 7,-1 0,-4 0,-8 3,-11 5,-6 14,-7 20,-3 3,3 5,7 5,11 3,-4 9,-7 15,-6zm-19 15c8,2 13,10 12,19 -2,8 -10,13 -19,11 -8,-2 -13,-10 -11,-18 2,-8 10,-13 18,-12z"/>
  </g>
 </g>
</svg>
