<?xml version="1.0" encoding="UTF-8"?>
<svg width="26px" height="26px" viewBox="0 0 26 26" version="1.1" xmlns="http://www.w3.org/2000/svg" xmlns:xlink="http://www.w3.org/1999/xlink">
    <!-- Generator: Sketch 46.2 (44496) - http://www.bohemiancoding.com/sketch -->
    <title>noun_860671_cc</title>
    <desc>Created with Sketch.</desc>
    <defs></defs>
    <g id="Page-1" stroke="none" stroke-width="1" fill="none" fill-rule="evenodd">
        <g id="produto" transform="translate(-150.000000, -149.000000)" fill-rule="nonzero" fill="#46A6AF">
            <g id="menu" transform="translate(81.000000, 149.000000)">
                <g id="Group-3">
                    <g id="Group-2">
                        <g id="noun_860671_cc" transform="translate(69.000000, 0.000000)">
                            <g id="Group" transform="translate(0.000000, 0.177209)">
                                <path d="M12.881477,0.100626562 C5.77740568,0.100626562 0,5.70810549 0,12.6032366 C0,19.4983704 5.77740568,25.1058466 12.881477,25.1058466 C19.9855485,25.1058466 25.7629539,19.4983704 25.7629539,12.6032366 C25.7629539,5.70810549 19.9855485,0.100626562 12.881477,0.100626562 Z M12.881477,1.76764123 C19.0573262,1.76764123 24.0454237,6.6090269 24.0454237,12.6032366 C24.0454237,18.5974323 19.0573262,23.4388319 12.881477,23.4388319 C6.70562774,23.4388319 1.71753026,18.5974323 1.71753026,12.6032366 C1.71753026,6.6090269 6.70562774,1.76764123 12.881477,1.76764123 Z M7.63943148,8.43569989 C7.33258594,8.45115951 7.05755311,8.62434803 6.91795617,8.8900138 C6.77835923,9.15567956 6.79541141,9.47345188 6.96268801,9.72360473 C7.12996461,9.97375759 7.42204619,10.1182776 7.72888618,10.1027146 L18.0340677,10.1027146 C18.3437683,10.1069643 18.6318357,9.94903465 18.7879637,9.68939974 C18.9440917,9.42976484 18.9440917,9.10864961 18.7879637,8.84901471 C18.6318357,8.5893798 18.3437683,8.43145019 18.0340677,8.43569989 L7.72888618,8.43569989 C7.69908819,8.43419166 7.66922947,8.43419166 7.63943148,8.43569989 Z M7.63943148,11.7697292 C7.33258594,11.7851888 7.05755311,11.9583774 6.91795617,12.2240431 C6.77835923,12.4897089 6.79541141,12.8074812 6.96268801,13.0576341 C7.12996461,13.3077869 7.42204619,13.452307 7.72888618,13.4367439 L18.0340677,13.4367439 C18.3437683,13.4409936 18.6318357,13.283064 18.7879637,13.0234291 C18.9440917,12.7637942 18.9440917,12.4426789 18.7879637,12.183044 C18.6318357,11.9234091 18.3437683,11.7654795 18.0340677,11.7697292 L7.72888618,11.7697292 C7.69908819,11.768221 7.66922947,11.768221 7.63943148,11.7697292 L7.63943148,11.7697292 Z M7.63943148,15.1037586 C7.33258594,15.1192182 7.05755311,15.2924067 6.91795617,15.5580725 C6.77835923,15.8237382 6.79541141,16.1415105 6.96268801,16.3916634 C7.12996461,16.6418163 7.42204619,16.7863363 7.72888618,16.7707732 L18.0340677,16.7707732 C18.3437683,16.7750229 18.6318357,16.6170933 18.7879637,16.3574584 C18.9440917,16.0978235 18.9440917,15.7767083 18.7879637,15.5170734 C18.6318357,15.2574385 18.3437683,15.0995089 18.0340677,15.1037586 L7.72888618,15.1037586 C7.69908819,15.1022503 7.66922947,15.1022503 7.63943148,15.1037586 L7.63943148,15.1037586 Z" id="Shape"></path>
                            </g>
                        </g>
                    </g>
                </g>
            </g>
        </g>
    </g>
</svg>