<?xml version="1.0" encoding="UTF-8"?>
<svg width="40px" height="37px" viewBox="0 0 40 37" version="1.1" xmlns="http://www.w3.org/2000/svg" xmlns:xlink="http://www.w3.org/1999/xlink">
    <!-- Generator: Sketch 46.2 (44496) - http://www.bohemiancoding.com/sketch -->
    <title>Shape</title>
    <desc>Created with Sketch.</desc>
    <defs></defs>
    <g id="Page-1" stroke="none" stroke-width="1" fill="none" fill-rule="evenodd">
        <g id="produto-aviso" transform="translate(-630.000000, -412.000000)" fill-rule="nonzero" fill="#AF4646">
            <g id="dropdown" transform="translate(484.000000, 393.000000)">
                <g id="Group-19" transform="translate(37.000000, 19.000000)">
                    <path d="M147.681316,25.0028903 C147.375117,24.5259411 146.7385,24.3880281 146.263193,24.6942278 C145.786244,25.000838 145.648331,25.635402 145.95453,26.1123512 C146.486891,26.9410606 146.768053,27.9011158 146.768053,28.8907238 C146.768053,31.7064477 144.477712,34.0152593 141.632435,34.0386553 L141.648443,35.0647938 L141.581128,34.0386553 L116.602044,34.0386553 C114.76854,34.0386553 113.060225,33.0519205 112.143267,31.4626372 C111.22631,29.8758167 111.22631,27.9035785 112.143267,26.3163475 L124.648612,4.65661643 C125.565569,3.06856452 127.273885,2.08182975 129.107389,2.08182975 C130.940893,2.08182975 132.649208,3.06856452 133.565345,4.65743735 L144.123489,22.9444565 C144.407114,23.4353611 145.035931,23.6028269 145.525605,23.3200232 C146.016099,23.0368089 146.184385,22.4088122 145.900761,21.918318 L135.343027,3.63170932 C134.061175,1.40950382 131.672325,0.0295527883 129.107799,0.0295527883 C126.544095,0.0295527883 124.154424,1.40909336 122.87175,3.63047795 L110.365996,25.2897986 C109.083322,27.5099518 109.083322,30.2686225 110.365996,32.4887757 C111.648669,34.7105708 114.03834,36.0905218 116.602044,36.0905218 L141.617248,36.0905218 C141.650085,36.0905218 141.681279,36.0901113 141.678817,36.0897009 C145.616726,36.0585063 148.81992,32.8290432 148.81992,28.8903133 C148.82074,27.5074891 148.426293,26.1628372 147.681316,25.0028903 Z M129.112314,22.7790429 C130.175394,22.7790429 131.342729,21.9897372 131.412917,20.5219487 L131.850462,10.3040722 C131.850462,10.2892958 131.851283,10.2749299 131.851283,10.2601535 C131.851283,8.75008807 130.62238,7.52159508 129.111904,7.52159508 C127.601428,7.52159508 126.372525,8.75008807 126.372525,10.2601535 C126.372525,10.2749299 126.372525,10.2892958 126.373345,10.3040722 L126.810891,20.5309788 C126.892571,22.084142 128.025428,22.7790429 129.112314,22.7790429 Z M129.112314,9.57387204 C129.485008,9.57387204 129.789566,9.87268357 129.798596,10.2429143 L129.362282,20.4287754 C129.358998,20.5026573 129.347916,20.726766 129.112314,20.726766 C128.945669,20.726766 128.877534,20.726766 128.862347,20.4337008 L128.425622,10.2429143 C128.434242,9.87268357 128.7388,9.57387204 129.112314,9.57387204 Z M126.840444,29.7149182 C127.441761,30.309668 128.269649,30.6507565 129.112314,30.6507565 C129.957442,30.6507565 130.78533,30.3084367 131.379259,29.7153286 C131.981397,29.1193474 132.327822,28.2881752 132.327822,27.4348385 C132.327822,26.5851958 131.982218,25.755255 131.382543,25.1629679 C130.782868,24.5632925 129.954569,24.2193309 129.112314,24.2193309 C128.272112,24.2193309 127.444224,24.5620612 126.835518,25.1637888 C126.239127,25.7610014 125.896807,26.5888899 125.896807,27.4348385 C125.896807,28.2840707 126.239127,29.1140115 126.840444,29.7149182 Z M128.283194,26.6184427 C128.502788,26.4013118 128.812271,26.2716079 129.112314,26.2716079 C129.410715,26.2716079 129.717736,26.4000804 129.936509,26.6184427 C130.151177,26.8318795 130.275545,27.1294597 130.275545,27.4348385 C130.275545,27.7435009 130.151998,28.0423125 129.932404,28.2594434 C129.499374,28.6920633 128.719508,28.6859065 128.287299,28.2598538 C128.072631,28.0447752 127.949084,27.7439114 127.949084,27.4348385 C127.949084,27.1327433 128.075914,26.8261331 128.283194,26.6184427 Z" id="Shape"></path>
                </g>
            </g>
        </g>
    </g>
</svg>