<?xml version="1.0" encoding="UTF-8"?>
<svg width="19px" height="17px" viewBox="0 0 19 17" version="1.1" xmlns="http://www.w3.org/2000/svg" xmlns:xlink="http://www.w3.org/1999/xlink">
    <!-- Generator: Sketch 46.2 (44496) - http://www.bohemiancoding.com/sketch -->
    <title>1493406977_blogger</title>
    <desc>Created with Sketch.</desc>
    <defs></defs>
    <g id="Page-1" stroke="none" stroke-width="1" fill="none" fill-rule="evenodd" stroke-linecap="round" stroke-linejoin="round">
        <g id="produto" transform="translate(-1201.000000, -10.000000)" stroke="#AFAFB0">
            <g id="navbar" transform="translate(-13.000000, -5.000000)">
                <g id="icons" transform="translate(1076.000000, 11.000000)">
                    <g id="1493406977_blogger" transform="translate(138.566160, 4.948791)">
                        <path d="M14.0486433,5.45415572 L14.0486433,2.52356459 C14.0486433,1.13967433 12.9117589,0 11.5312564,0 L3.08582917,0 C1.70532664,0 0.568442215,1.13967433 0.568442215,2.52356459 L0.568442215,5.45415572 L0.568442215,9.28020526 L0.568442215,11.7223645 C0.568442215,13.3504707 1.86773871,14.6529557 3.49185932,14.6529557 L14.7794976,14.6529557 C16.4036182,14.6529557 17.7029147,13.3504707 17.7029147,11.7223645 L17.7029147,9.28020526 C17.7029147,7.65209907 16.6472363,6.18680351 15.0231157,6.18680351 C15.0231157,6.18680351 14.0486433,6.26820881 14.0486433,5.45415572 Z" id="Shape"></path>
                        <path d="M10.9628141,6.34961412 L4.14150756,6.34961412 C3.65427138,6.34961412 3.24824123,5.94258758 3.24824123,5.45415572 L3.24824123,3.25621237 C3.24824123,2.76778052 3.65427138,2.36075397 4.14150756,2.36075397 L10.9628141,2.36075397 C11.4500503,2.36075397 11.8560805,2.76778052 11.8560805,3.25621237 L11.8560805,5.45415572 C11.8560805,5.94258758 11.4500503,6.34961412 10.9628141,6.34961412 Z" id="Shape"></path>
                        <path d="M14.2922614,12.1293911 L4.30391963,12.1293911 C3.81668344,12.1293911 3.49185932,11.7223645 3.49185932,11.315338 L3.49185932,8.95458402 C3.49185932,8.46615217 3.89788947,8.14053093 4.30391963,8.14053093 L14.2922614,8.14053093 C14.7794976,8.14053093 15.1043217,8.54755747 15.1043217,8.95458402 L15.1043217,11.315338 C15.1043217,11.7223645 14.6982916,12.1293911 14.2922614,12.1293911 Z" id="Shape"></path>
                    </g>
                </g>
            </g>
        </g>
    </g>
</svg>