<?xml version="1.0" encoding="UTF-8"?>
<svg width="43px" height="35px" viewBox="0 0 43 35" version="1.1" xmlns="http://www.w3.org/2000/svg" xmlns:xlink="http://www.w3.org/1999/xlink">
    <!-- Generator: Sketch 46.2 (44496) - http://www.bohemiancoding.com/sketch -->
    <title>noun_798111_cc</title>
    <desc>Created with Sketch.</desc>
    <defs></defs>
    <g id="Page-1" stroke="none" stroke-width="1" fill="none" fill-rule="evenodd">
        <g id="produto" transform="translate(-1174.000000, -57.000000)" stroke="#46A6AF" stroke-width="0.5" fill="#46A6AF" fill-rule="nonzero">
            <g id="header" transform="translate(-12.000000, 55.000000)">
                <g id="Group-24" transform="translate(1181.000000, 0.000000)">
                    <g id="noun_798111_cc" transform="translate(6.000000, 3.000000)">
                        <path d="M37.1540016,24.5107819 C37.0505806,24.9761765 36.6368965,25.33815 36.1715019,25.33815 L12.3846672,25.33815 C11.9192726,25.33815 11.5055885,24.9761765 11.350457,24.5107819 L6.38624802,2.06842041 L1.00835495,2.06842041 C-0.336118317,2.06842041 -0.336118317,0 1.00835495,0 L7.21361618,0 C7.67901077,0 8.09269485,0.361973572 8.24782639,0.827368164 L13.2120354,23.2697296 L35.3441338,23.2697296 C37.9627863,11.8927104 39.374793,5.99771221 39.5801537,5.58473511 C39.8881948,4.96526945 41.3948189,4.99607357 41.2998817,5.91893448 C41.2365902,6.53417509 39.8546301,12.7314575 37.1540016,24.5107819 Z M14.9701927,27.9236755 C13.5222984,27.9236755 12.3846672,29.0613068 12.3846672,30.509201 C12.3846672,31.9570953 13.5222984,33.0947266 14.9701927,33.0947266 C16.418087,33.0947266 17.5557182,31.9570953 17.5557182,30.509201 C17.5557182,29.0613068 16.3663765,27.9236755 14.9701927,27.9236755 M34.6201866,27.9236755 C33.1722923,27.9236755 32.0346611,29.0613068 32.0346611,30.509201 C32.0346611,31.9570953 33.1722923,33.0947266 34.6201866,33.0947266 C36.0680809,33.0947266 37.2057121,31.9570953 37.2057121,30.509201 C37.2057121,29.0613068 36.0163704,27.9236755 34.6201866,27.9236755" id="Shape"></path>
                    </g>
                </g>
            </g>
        </g>
    </g>
</svg>