<?xml version="1.0" encoding="UTF-8"?>
<svg width="12px" height="20px" viewBox="0 0 12 20" version="1.1" xmlns="http://www.w3.org/2000/svg" xmlns:xlink="http://www.w3.org/1999/xlink">
    <!-- Generator: Sketch 46.2 (44496) - http://www.bohemiancoding.com/sketch -->
    <title>1493406952_facebook</title>
    <desc>Created with Sketch.</desc>
    <defs></defs>
    <g id="Page-1" stroke="none" stroke-width="1" fill="none" fill-rule="evenodd" stroke-linecap="round" stroke-linejoin="round">
        <g id="produto" transform="translate(-1062.000000, -7.000000)" stroke="#AFAFB0" stroke-width="1.75">
            <g id="navbar" transform="translate(-13.000000, -5.000000)">
                <g id="icons" transform="translate(1076.000000, 11.000000)">
                    <g id="1493406952_facebook" transform="translate(0.000000, 1.979517)">
                        <path d="M2.81390582,17.6143983 C2.56378086,17.6143983 2.3136559,17.4263442 2.3136559,17.1129207 L2.3136559,9.34001901 C2.3136559,9.08928024 2.12606217,8.83854148 1.81340597,8.83854148 L0.500249923,8.83854148 C0.250124962,8.83854148 0,8.6504874 0,8.33706395 L0,6.45652321 C0,6.20578444 0.187593721,5.95504568 0.500249923,5.95504568 L1.75087473,5.95504568 C2.00099969,5.95504568 2.25112466,5.7669916 2.25112466,5.45356815 L2.25112466,2.63275704 C2.18859342,1.19100914 3.75187443,0.0626846913 5.00249923,0 L8.62931118,0 C8.87943614,0 9.1295611,0.250738765 9.1295611,0.501477531 L9.1295611,2.31933358 C9.1295611,2.57007234 8.94196738,2.82081111 8.62931118,2.82081111 L7.19109265,2.82081111 C6.37818652,2.82081111 5.75287412,3.44765802 5.75287412,4.26255901 L5.75287412,5.51625284 C5.75287412,5.7669916 5.94046784,6.01773037 6.25312404,6.01773037 L8.12906126,6.01773037 C8.37918622,6.01773037 8.62931118,6.20578444 8.62931118,6.5192079 L8.62931118,8.46243333 C8.62931118,8.7131721 8.44171746,8.96391086 8.12906126,8.96391086 L6.37818652,8.96391086 C6.12806156,8.96391086 5.8779366,9.15196493 5.8779366,9.46538839 L5.8779366,17.2382901" id="Shape"></path>
                    </g>
                </g>
            </g>
        </g>
    </g>
</svg>