<?xml version="1.0" encoding="UTF-8"?>
<svg width="21px" height="21px" viewBox="0 0 21 21" version="1.1" xmlns="http://www.w3.org/2000/svg" xmlns:xlink="http://www.w3.org/1999/xlink">
    <!-- Generator: Sketch 46.2 (44496) - http://www.bohemiancoding.com/sketch -->
    <title>1493406968_googleplus</title>
    <desc>Created with Sketch.</desc>
    <defs></defs>
    <g id="Page-1" stroke="none" stroke-width="1" fill="none" fill-rule="evenodd" stroke-linecap="round" stroke-linejoin="round">
        <g id="produto" transform="translate(-1157.000000, -6.000000)" stroke="#AFAFB0" stroke-width="1.1">
            <g id="navbar" transform="translate(-13.000000, -5.000000)">
                <g id="icons" transform="translate(1076.000000, 11.000000)">
                    <g id="1493406968_googleplus" transform="translate(95.016795, 0.989758)">
                        <path d="M10.3176547,0.689531605 C8.12906126,0.376108148 1.56328101,-0.689531605 1.56328101,4.76403654 C1.56328101,7.71021703 3.87693691,8.52511802 5.12756172,8.77585679 C5.69034288,8.90122617 6.12806156,9.27733432 6.37818652,9.77881185 C6.56578025,10.2802894 6.56578025,10.6563975 5.94046784,10.8444516 C4.93996799,11.0951904 -0.125062481,11.4712985 0.312656202,15.3577494 C0.937968607,20.8740022 13.7568729,18.680038 11.443217,13.4145239 C10.5677796,11.3459291 6.56578025,10.0295506 9.06702986,8.27437926 C11.0680296,6.83263136 11.1305608,4.19987432 9.31715482,1.94322543" id="Shape"></path>
                        <path d="M16.4457162,4.3252437 L19.0094971,4.3252437 C19.1970908,4.3252437 19.3221533,4.51329778 19.3221533,4.70135185 L19.3221533,5.57893753 C19.3221533,5.7669916 19.1970908,5.95504568 19.0094971,5.95504568 L16.6958412,5.95504568 C16.5082475,5.95504568 16.383185,6.14309975 16.383185,6.33115382 L16.4457162,9.02659555 C16.4457162,9.21464963 16.3206538,9.4027037 16.13306,9.4027037 L15.4452164,9.4027037 C15.2576227,9.4027037 15.1325602,9.21464963 15.1325602,9.02659555 L15.1325602,6.33115382 C15.1325602,6.14309975 15.0074977,5.95504568 14.819904,5.95504568 L12.5687793,5.95504568 C12.3811856,5.95504568 12.2561231,5.7669916 12.2561231,5.57893753 L12.2561231,4.70135185 C12.2561231,4.51329778 12.3811856,4.3252437 12.5687793,4.3252437 L14.819904,4.3252437 C15.0074977,4.3252437 15.1325602,4.13718963 15.1325602,3.94913555 L15.1325602,2.63275704" id="Shape"></path>
                        <path d="M8.31665498,4.76403654 C8.69184242,6.39383852 7.94146754,7.71021703 6.62831149,7.71021703 C5.31515544,7.71021703 4.06453063,6.39383852 3.68934319,4.76403654 C3.31415574,3.13423457 4.06453063,1.81785605 5.37768668,1.81785605 C6.69084273,1.81785605 8.00399878,3.13423457 8.31665498,4.76403654 Z" id="Shape"></path>
                        <path d="M6.44071776,12.3488842 C8.44171746,12.4115689 9.87993599,13.5398933 9.56727979,14.8562718 C9.25462358,16.1726504 7.37868637,17.1756054 5.37768668,17.1129207 C3.37668698,17.050236 1.93846845,15.9219116 2.25112466,14.6055331 C2.56378086,13.2891546 4.43971807,12.2861995 6.44071776,12.3488842 Z" id="Shape"></path>
                    </g>
                </g>
            </g>
        </g>
    </g>
</svg>