<?xml version="1.0" encoding="UTF-8"?>
<svg width="34px" height="34px" viewBox="0 0 34 34" version="1.1" xmlns="http://www.w3.org/2000/svg" xmlns:xlink="http://www.w3.org/1999/xlink">
    <!-- Generator: Sketch 46.2 (44496) - http://www.bohemiancoding.com/sketch -->
    <title>noun_930812_cc</title>
    <desc>Created with Sketch.</desc>
    <defs></defs>
    <g id="Page-1" stroke="none" stroke-width="1" fill="none" fill-rule="evenodd">
        <g id="produto" transform="translate(-1017.000000, -56.000000)" fill-rule="nonzero" fill="#46A6AF">
            <g id="header" transform="translate(-12.000000, 55.000000)">
                <g id="Group-22" transform="translate(1022.000000, 1.000000)">
                    <g id="noun_930812_cc" transform="translate(7.000000, 0.000000)">
                        <path d="M18.2200041,23.1890961 C18.2200041,24.1277024 17.5022463,24.8454601 16.5636401,24.8454601 C15.6250338,24.8454601 14.9072761,24.1277024 14.9072761,23.1890961 C14.9072761,22.2504898 15.6250338,21.5327321 16.5636401,21.5327321 C17.5022463,21.5327321 18.2200041,22.2504898 18.2200041,23.1890961 Z M16.5636401,8.83394137 C13.8030334,8.83394137 11.594548,11.0424267 11.594548,13.8030334 C11.594548,14.4103669 12.0914572,14.9072761 12.6987907,14.9072761 C13.3061242,14.9072761 13.8030334,14.4103669 13.8030334,13.8030334 C13.8030334,12.2570936 15.0177003,11.0424267 16.5636401,11.0424267 C18.1095798,11.0424267 19.3242467,12.2570936 19.3242467,13.8030334 C19.3242467,15.3489731 18.1095798,16.5636401 16.5636401,16.5636401 C15.9563066,16.5636401 15.4593974,17.0605493 15.4593974,17.6678827 L15.4593974,19.3242467 C15.4593974,19.9315802 15.9563066,20.4284894 16.5636401,20.4284894 C17.1709735,20.4284894 17.6678827,19.9315802 17.6678827,19.3242467 L17.6678827,18.6617011 C19.8763681,18.1653441 21.5327321,16.1771551 21.5327321,13.8030334 C21.5327321,11.0424267 19.3242467,8.83394137 16.5636401,8.83394137 Z M33.1272801,16.5636401 C33.1272801,25.6736421 25.7288542,33.072068 16.6188522,33.072068 L2.20848534,33.072068 C0.993818404,33.072068 0,32.0776975 0,30.8635826 L0,16.5636401 C0,7.45363803 7.39842589,0.0552121335 16.5084279,0.0552121335 C25.9933203,0.0552121335 33.1272801,7.67393444 33.1272801,16.5636401 Z M30.9187948,16.5636401 C30.9187948,8.83283712 24.7206807,2.26369747 16.5084279,2.26369747 C8.61309283,2.26369747 2.20848534,8.66830496 2.20848534,16.5636401 L2.20848534,30.8635826 L16.6188522,30.8635826 C24.5141873,30.8635826 30.9187948,24.4589752 30.9187948,16.5636401 Z" id="Shape"></path>
                    </g>
                </g>
            </g>
        </g>
    </g>
</svg>