<?xml version="1.0" encoding="UTF-8"?>
<svg width="20px" height="20px" viewBox="0 0 20 20" version="1.1" xmlns="http://www.w3.org/2000/svg" xmlns:xlink="http://www.w3.org/1999/xlink">
    <!-- Generator: Sketch 46.2 (44496) - http://www.bohemiancoding.com/sketch -->
    <title>1493406963_instagram</title>
    <desc>Created with Sketch.</desc>
    <defs></defs>
    <g id="Page-1" stroke="none" stroke-width="1" fill="none" fill-rule="evenodd" stroke-linecap="round" stroke-linejoin="round">
        <g id="produto" transform="translate(-1130.000000, -7.000000)" stroke="#AFAFB0" stroke-width="1.6">
            <g id="navbar" transform="translate(-13.000000, -5.000000)">
                <g id="icons" transform="translate(1076.000000, 11.000000)">
                    <g id="1493406963_instagram" transform="translate(68.293322, 1.979517)">
                        <ellipse id="Oval" cx="8.94196738" cy="8.6504874" rx="4.93996799" ry="4.95209062"></ellipse>
                        <path d="M14.9449665,5.45356815 L17.2586224,5.45356815 L17.2586224,15.0443259 C17.2586224,16.3607044 16.1955913,17.4890289 14.819904,17.4890289 L2.81390582,17.4890289 C1.50074977,17.4890289 0.375187443,16.4233891 0.375187443,15.0443259 L0.375187443,2.44470296 C0.375187443,1.06563975 1.50074977,0 2.81390582,0 L14.8824352,0 C15.8829351,0 16.8209037,0.752216296 17.1335599,1.62980197 L13.0690293,1.56711728 C12.756373,1.56711728 12.4437168,1.81785605 12.4437168,2.1939642 L12.5062481,3.32228864" id="Shape"></path>
                        <path d="M0.500249923,6.22605299 L3.93946815,6.22605299" id="Shape"></path>
                    </g>
                </g>
            </g>
        </g>
    </g>
</svg>