<?xml version="1.0" encoding="UTF-8"?>
<svg width="19px" height="20px" viewBox="0 0 19 20" version="1.1" xmlns="http://www.w3.org/2000/svg" xmlns:xlink="http://www.w3.org/1999/xlink">
    <!-- Generator: Sketch 46.2 (44496) - http://www.bohemiancoding.com/sketch -->
    <title>1493406982_path</title>
    <desc>Created with Sketch.</desc>
    <defs></defs>
    <g id="Page-1" stroke="none" stroke-width="1" fill="none" fill-rule="evenodd" stroke-linecap="round" stroke-linejoin="round">
        <g id="produto" transform="translate(-1105.000000, -6.000000)" stroke="#AFAFB0" stroke-width="1.6">
            <g id="navbar" transform="translate(-13.000000, -5.000000)">
                <g id="icons" transform="translate(1076.000000, 11.000000)">
                    <g id="1493406982_path" transform="translate(43.549365, 0.989758)">
                        <path d="M1.81340597,11.4086138 C0.625312404,10.2176047 0.0625312404,7.9609558 0.0625312404,6.33115382 C0.0625312404,2.50738765 3.5642807,0.125369383 8.1915925,0.125369383 C12.8189043,0.125369383 16.5082475,3.19691926 16.5082475,7.02068543 C16.5082475,10.2176047 13.5067479,13.4145239 8.5042487,13.2264699 C8.5042487,13.2264699 8.5042487,13.1637852 8.5042487,15.6084881 C8.5042487,18.0531911 4.87743675,18.5546686 3.06403078,17.5517136 L3.5642807,15.1696953 C3.5642807,15.1696953 5.37768668,15.7338575 5.50274916,15.23238 L5.50274916,5.20282938 L8.75437366,5.20282938 L8.75437366,10.3429741 C8.75437366,10.3429741 13.9444666,10.7190822 13.6943417,7.08337012 C13.5067479,4.07450494 10.5052484,2.75812642 8.00399878,2.69544173 C0.125062481,2.63275704 3.5642807,10.0295506 3.5642807,10.0295506" id="Shape"></path>
                    </g>
                </g>
            </g>
        </g>
    </g>
</svg>