<?xml version="1.0" encoding="UTF-8"?>
<svg width="22px" height="22px" viewBox="0 0 22 22" version="1.1" xmlns="http://www.w3.org/2000/svg" xmlns:xlink="http://www.w3.org/1999/xlink">
    <!-- Generator: Sketch 46.2 (44496) - http://www.bohemiancoding.com/sketch -->
    <title>Combined Shape</title>
    <desc>Created with Sketch.</desc>
    <defs></defs>
    <g id="Page-1" stroke="none" stroke-width="1" fill="none" fill-rule="evenodd">
        <g id="produto" transform="translate(-901.000000, -74.000000)" fill-rule="nonzero" fill="#AFAFB0">
            <g id="header" transform="translate(-12.000000, 55.000000)">
                <g id="search" transform="translate(357.000000, 10.000000)">
                    <path d="M568.573262,11.7094901 C572.354158,11.7099677 575.418838,14.7752923 575.418519,18.5561886 C575.418201,22.3370848 572.353005,25.4018933 568.572109,25.4017342 C564.791213,25.401575 561.726275,22.3365084 561.726275,18.5556122 C561.726275,16.7397579 562.44768,14.9982889 563.731764,13.7143671 C565.015848,12.4304453 566.757408,11.7092608 568.573262,11.7094901 L568.573262,11.7094901 Z M562.762822,26.1434987 C563.393636,26.6268402 564.093213,27.0374149 564.852966,27.3589426 C569.696735,29.3320327 575.226805,27.0451804 577.262302,22.2273046 C579.297799,17.4094288 577.082575,11.8502788 572.291396,9.75271409 C571.115242,9.25434184 569.850646,8.9983345 568.573262,9.00000815 L568.573262,9.00000815 C564.028292,9.00216849 560.113514,12.2047686 559.210858,16.6592014 C558.660968,19.3728026 559.32159,22.0936539 560.868204,24.20633 L556.400294,28.6742404 C555.865409,29.209125 555.868605,30.0637039 556.397664,30.5927632 C556.930412,31.125511 557.785675,31.1206451 558.316187,30.5901334 L562.762822,26.1434987 Z" id="Combined-Shape" transform="translate(567.009063, 19.995088) scale(-1, 1) translate(-567.009063, -19.995088) "></path>
                </g>
            </g>
        </g>
    </g>
</svg>