<?xml version="1.0" encoding="UTF-8"?>
<svg width="23px" height="23px" viewBox="0 0 23 23" version="1.1" xmlns="http://www.w3.org/2000/svg" xmlns:xlink="http://www.w3.org/1999/xlink">
    <!-- Generator: Sketch 46.2 (44496) - http://www.bohemiancoding.com/sketch -->
    <title>Shape</title>
    <desc>Created with Sketch.</desc>
    <defs></defs>
    <g id="Page-1" stroke="none" stroke-width="1" fill="none" fill-rule="evenodd">
        <g id="produto" transform="translate(-80.000000, -5.000000)" stroke="#606062" fill-rule="nonzero" fill="#606062">
            <g id="navbar" transform="translate(-13.000000, -5.000000)">
                <path d="M112.86323,17.4654068 C111.982637,13.6881261 108.576132,11 104.682984,11 C100.766662,11 97.3833312,13.6881261 96.5027381,17.4654068 C95.0428075,17.9520503 94,19.2961134 94,20.895085 L94,24.4174571 C94,26.1091227 95.1818486,27.5227063 96.7576466,27.9166558 C97.6150662,29.7010154 99.3762523,30.8365169 101.392347,30.8365169 L102.551022,30.8365169 C102.759583,31.531722 103.408441,32.041539 104.173167,32.041539 L105.424536,32.041539 C106.37465,32.041539 107.139375,31.2768134 107.139375,30.3266999 C107.139375,29.3765864 106.37465,28.6118608 105.424536,28.6118608 L104.173167,28.6118608 C103.477962,28.6118608 102.875451,29.0289838 102.597369,29.6314949 L101.369173,29.6314949 C100.048284,29.6314949 98.8664352,28.9826368 98.1480567,27.9398293 C99.0286497,27.7080943 99.7006813,26.8970217 99.7006813,25.9237347 L99.7006813,19.3656339 C99.7006813,18.2764793 98.8432617,17.3727128 97.7772807,17.2800188 C98.7042207,14.2906372 101.485041,12.1818486 104.65981,12.1818486 C107.857754,12.1818486 110.638574,14.2906372 111.54234,17.2800188 C110.476359,17.3727128 109.61894,18.2533058 109.61894,19.3656339 L109.61894,25.9237347 C109.61894,27.0824098 110.54588,28.0093498 111.704555,28.0093498 C113.697476,28.0093498 115.319621,26.3872047 115.319621,24.3942836 L115.319621,20.895085 C115.342794,19.2961134 114.299987,17.9520503 112.86323,17.4654068 Z M104.19634,29.8168829 L105.44771,29.8168829 C105.725792,29.8168829 105.957527,30.0486179 105.957527,30.3266999 C105.957527,30.6047819 105.725792,30.8365169 105.44771,30.8365169 L104.19634,30.8365169 C103.918258,30.8365169 103.686523,30.6047819 103.686523,30.3266999 C103.686523,30.0254444 103.895085,29.8168829 104.19634,29.8168829 Z M98.5188327,19.3656339 L98.5188327,25.9237347 C98.5188327,26.4103782 98.1248832,26.8043277 97.6382397,26.8043277 C96.3173501,26.8043277 95.2281956,25.7151732 95.2281956,24.3942836 L95.2281956,20.895085 C95.2281956,19.5741954 96.3173501,18.4850409 97.6382397,18.4850409 C98.1017097,18.4850409 98.5188327,18.8789904 98.5188327,19.3656339 Z M114.137772,24.4174571 C114.137772,25.7383467 113.048618,26.8275012 111.727728,26.8275012 C111.241085,26.8275012 110.847135,26.4335517 110.847135,25.9469082 L110.847135,19.3656339 C110.847135,18.8789904 111.241085,18.4850409 111.727728,18.4850409 C113.048618,18.4850409 114.137772,19.5741954 114.137772,20.895085 L114.137772,24.4174571 Z" id="Shape"></path>
            </g>
        </g>
    </g>
</svg>