<?xml version="1.0" encoding="UTF-8"?>
<svg width="20px" height="16px" viewBox="0 0 20 16" version="1.1" xmlns="http://www.w3.org/2000/svg" xmlns:xlink="http://www.w3.org/1999/xlink">
    <!-- Generator: Sketch 46.2 (44496) - http://www.bohemiancoding.com/sketch -->
    <title>1493406958_twitter</title>
    <desc>Created with Sketch.</desc>
    <defs></defs>
    <g id="Page-1" stroke="none" stroke-width="1" fill="none" fill-rule="evenodd" stroke-linecap="round" stroke-linejoin="round">
        <g id="produto" transform="translate(-1079.000000, -11.000000)" stroke="#AFAFB0" stroke-width="1.75">
            <g id="navbar" transform="translate(-13.000000, -5.000000)">
                <g id="icons" transform="translate(1076.000000, 11.000000)">
                    <g id="1493406958_twitter" transform="translate(17.815649, 5.938550)">
                        <path d="M5.23830927,10.6387219 C5.23830927,10.6387219 2.65316963,12.616433 0.340149953,12.3436453 C-1.97286972,12.0708575 8.84389877,16.3672645 13.2658481,9.88855561 C14.9665979,7.43346594 15.1026579,4.91017934 15.1706879,4.09181612 C15.1706879,3.95542225 15.2387179,3.75083144 15.3067479,3.61443757 L16.5993177,1.77312032 L14.9665979,2.25049886 L16.5312877,0.0681969353 L14.6944779,0.886560158 C14.422358,1.02295403 14.082208,0.954757094 13.8100881,0.818363223 C13.1297882,0.340984676 11.6331284,-0.477378547 9.93237861,0.750166288 C8.5717788,1.70492338 8.23162885,2.72787741 8.09556887,3.40984676 C8.02753888,3.88722531 7.55132895,4.22820999 7.07511901,4.09181612 C5.78254919,3.81902837 3.6055895,3.20525596 2.04089972,1.77312032 C1.56468978,1.22754483 0.612269915,1.50033258 0.612269915,2.25049886 C0.612269915,2.93246822 0.884389877,3.95542225 2.04089972,5.31936095 L0.612269915,4.6373916 C0.612269915,4.6373916 0.340149953,6.81969353 3.19740955,8.1154353 L1.76877975,8.38822304" id="Shape"></path>
                    </g>
                </g>
            </g>
        </g>
    </g>
</svg>