<?xml version="1.0" encoding="UTF-8"?>
<svg width="35px" height="34px" viewBox="0 0 35 34" version="1.1" xmlns="http://www.w3.org/2000/svg" xmlns:xlink="http://www.w3.org/1999/xlink">
    <!-- Generator: Sketch 46.2 (44496) - http://www.bohemiancoding.com/sketch -->
    <title>noun_18127_cc</title>
    <desc>Created with Sketch.</desc>
    <defs></defs>
    <g id="Page-1" stroke="none" stroke-width="1" fill="none" fill-rule="evenodd">
        <g id="produto" transform="translate(-1102.000000, -56.000000)" fill-rule="nonzero" fill="#46A6AF">
            <g id="header" transform="translate(-12.000000, 55.000000)">
                <g id="Group-23" transform="translate(1095.000000, 1.000000)">
                    <g id="noun_18127_cc" transform="translate(19.000000, 0.000000)">
                        <path d="M34.1485606,33.0707356 L0.560312324,33.0707356 L0.557683951,30.9726027 C0.536241965,27.3053314 0.518535035,24.1404943 5.64441466,22.9577267 L5.91859541,22.8936774 C8.29090906,22.348636 11.2421563,21.6683025 11.7293736,20.5870731 C11.8851392,20.243448 11.7791743,19.7321604 11.4177039,19.0642771 C8.04079867,12.8483146 7.40846759,7.96286186 9.64286085,4.21023767 C11.1861305,1.6170024 13.9966907,0.129758598 17.3549206,0.129758598 C20.6864519,0.129758598 23.4799968,1.59376206 25.0170414,4.15144513 C27.2460395,7.85606693 26.6351504,12.7575666 23.2964257,19.0536253 C22.9393821,19.7269036 22.8379823,20.245108 22.9954079,20.5906698 C23.4887119,21.6735593 26.3588947,22.3342491 28.888219,22.9184395 L29.0644583,22.9593867 C34.1885395,24.1421543 34.1724926,27.3071298 34.1493906,30.9724643 L34.1485606,33.0707356 Z M3.06362958,30.5621616 L31.6452433,30.5621616 C31.6603219,27.1693477 31.5554637,26.1059636 28.5017099,25.4043265 L28.3279606,25.3632409 C24.9305817,24.5795709 21.723829,23.8404449 20.7148106,21.6337187 C20.2162499,20.5418374 20.3408901,19.2774519 21.0816761,17.8791578 C23.9919761,12.3934678 24.6259672,8.36832289 22.867171,5.44557272 C21.7790248,3.63600745 19.820749,2.63860927 17.3547823,2.63860927 C14.8657136,2.63860927 12.8949876,3.65371438 11.7986796,5.49537346 C10.0354567,8.45547419 10.6828663,12.4593155 13.6224934,17.8683676 C14.3784963,19.2594683 14.5112983,20.5238538 14.017026,21.6175334 C13.0178294,23.8349114 9.84303216,24.5653223 6.4821738,25.3382021 L6.20785472,25.4022514 C3.15451594,26.1069319 3.04855103,27.1700394 3.06362958,30.5621616 Z" id="Shape"></path>
                    </g>
                </g>
            </g>
        </g>
    </g>
</svg>