<?xml version="1.0" encoding="UTF-8"?>
<svg width="17px" height="20px" viewBox="0 0 17 20" version="1.1" xmlns="http://www.w3.org/2000/svg" xmlns:xlink="http://www.w3.org/1999/xlink">
    <!-- Generator: Sketch 46.2 (44496) - http://www.bohemiancoding.com/sketch -->
    <title>Page 1</title>
    <desc>Created with Sketch.</desc>
    <defs></defs>
    <g id="Page-1" stroke="none" stroke-width="1" fill="none" fill-rule="evenodd">
        <g id="produto" transform="translate(-1181.000000, -6.000000)" stroke="#AFAFB0" stroke-width="0.6" fill="#AFAFB0">
            <g id="navbar" transform="translate(-13.000000, -5.000000)">
                <g id="icons" transform="translate(1076.000000, 11.000000)">
                    <g id="Page-1" transform="translate(118.770994, 0.000000)">
                        <path d="M6.53766227,0.657391067 C6.41857455,0.606306768 6.2779497,0.662499497 6.22664063,0.784463259 L5.05603371,3.57430451 L4.00451451,0.978583594 C3.95573922,0.856619831 3.8170147,0.797234334 3.6953932,0.847680079 C3.5737717,0.89748727 3.51549474,1.03733054 3.56490347,1.15993285 L4.81405761,4.24478593 L4.81405761,7.51865091 C4.81405761,7.65083154 4.92047642,7.75810856 5.05159959,7.75810856 C5.18272277,7.75810856 5.28914158,7.65083154 5.28914158,7.51865091 L5.28914158,4.24670159 L6.66371789,0.970920949 C6.71502696,0.84959574 6.65865032,0.709113919 6.53766227,0.657391067" id="Fill-1"></path>
                        <path d="M7.52216296,3.16045784 C7.27321896,3.16045784 7.06291512,3.37245768 7.06291512,3.6234093 L7.06291512,6.75232258 C7.06291512,7.0032742 7.27321896,7.21527404 7.52216296,7.21527404 C7.68559185,7.21527404 7.8274836,7.15716565 7.91299871,7.0556356 C7.95733988,7.0032742 8.00484828,6.91515378 7.98457803,6.79191291 L7.9814108,3.6234093 C7.9814108,3.37245768 7.77110696,3.16045784 7.52216296,3.16045784 M7.52216296,7.69418934 C7.00717193,7.69418934 6.58783114,7.27146676 6.58783114,6.75232258 L6.58783114,3.6234093 C6.58783114,3.10426511 7.00717193,2.68154254 7.52216296,2.68154254 C8.03715399,2.68154254 8.45649478,3.10426511 8.45649478,3.6234093 L8.45649478,6.75232258 C8.49260116,6.95027424 8.42989008,7.18206924 8.27532942,7.36469561 C8.09986508,7.57414123 7.82558326,7.69418934 7.52216296,7.69418934" id="Fill-4"></path>
                        <path d="M14.7591488,10.1368489 L14.7591488,18.0542766 C14.7591488,18.6270593 14.2973672,19.0919265 13.7298002,19.0919265 L1.5043059,19.0919265 C0.936738912,19.0919265 0.474957287,18.6270593 0.474957287,18.0542766 L0.474957287,10.1368489 C0.474957287,9.56470478 0.936738912,9.09919911 1.5043059,9.09919911 L10.8792964,9.09919911 C11.0104195,9.09919911 11.1168384,8.99192208 11.1168384,8.85974146 L11.1168384,7.08647775 C11.1567454,6.98239349 11.1808163,6.87064659 11.1808163,6.75251415 L11.1808163,2.85733638 C11.1808163,2.72515576 11.0743975,2.61787873 10.9432743,2.61787873 C10.8121512,2.61787873 10.7057324,2.72515576 10.7057324,2.85733638 L10.6784942,6.95174291 C10.5993135,7.09414039 10.4162479,7.2154656 10.2458511,7.2154656 C9.99690707,7.2154656 9.78660323,7.00346576 9.78660323,6.75251415 L9.78660323,2.85733638 C9.78660323,2.72515576 9.68018441,2.61787873 9.54906124,2.61787873 C9.41793806,2.61787873 9.31151925,2.72515576 9.31151925,2.85733638 L9.31151925,6.75251415 C9.31151925,7.27165833 9.73086004,7.6943809 10.2458511,7.6943809 C10.3883763,7.6943809 10.5213998,7.659899 10.6417544,7.60242916 L10.6417544,8.62028381 L1.5043059,8.62028381 C0.675126003,8.62028381 -0.00012668906,9.30034354 -0.00012668906,10.1368489 L-0.00012668906,18.0542766 C-0.00012668906,18.890782 0.675126003,19.5708418 1.5043059,19.5708418 L13.7298002,19.5708418 C14.5596136,19.5708418 15.2342328,18.890782 15.2342328,18.0542766 L15.2342328,10.1368489 C15.2342328,10.0046683 15.127814,9.89739128 14.9966908,9.89739128 C14.8655677,9.89739128 14.7591488,10.0046683 14.7591488,10.1368489 Z" id="Fill-6"></path>
                        <path d="M6.87294487,12.371787 C6.87294487,12.2396064 6.76652606,12.1323293 6.63540288,12.1323293 C6.5042797,12.1323293 6.39786089,12.2396064 6.39786089,12.371787 L6.39786089,16.2669647 C6.39786089,16.5179164 6.18755705,16.7299162 5.93861305,16.7299162 C5.68966905,16.7299162 5.47936521,16.5179164 5.47936521,16.2669647 L5.47936521,12.371787 C5.47936521,12.2396064 5.3729464,12.1323293 5.24182322,12.1323293 C5.11070004,12.1323293 5.00428123,12.2396064 5.00428123,12.371787 L5.00428123,16.2669647 C5.00428123,16.7861089 5.42298857,17.2088315 5.93861305,17.2088315 C6.13814832,17.2088315 6.3224809,17.1443376 6.47450778,17.036422 C6.50364626,17.1353978 6.58599415,17.2088315 6.65757347,17.2088315 C6.78869664,17.2088315 6.87231142,17.1015545 6.87231142,16.9693739 L6.87231142,16.0115433 C6.87231142,15.9496035 6.87294487,12.371787 6.87294487,12.371787" id="Fill-9"></path>
                        <path d="M4.98838175,10.535945 L2.20122242,10.535945 C2.07009925,10.535945 1.96368044,10.643222 1.96368044,10.7754027 C1.96368044,10.9075833 2.07009925,11.0148603 2.20122242,11.0148603 L3.29391557,11.0148603 L3.29391557,16.9693739 C3.29391557,17.1015545 3.40033438,17.2088315 3.53145756,17.2088315 C3.66258074,17.2088315 3.76899955,17.1015545 3.76899955,16.9693739 L3.76899955,11.0148603 L4.98838175,11.0148603 C5.11950493,11.0148603 5.22592374,10.9075833 5.22592374,10.7754027 C5.22592374,10.643222 5.11950493,10.535945 4.98838175,10.535945" id="Fill-11"></path>
                        <path d="M9.31177263,16.2667093 C9.31177263,16.5131911 9.10653635,16.6658054 8.91586931,16.6658054 L8.85189134,16.6658054 C8.6080149,16.6658054 8.45662147,16.458914 8.45662147,16.2667093 L8.45662147,13.648639 C8.45662147,13.4027958 8.66185775,13.2495429 8.85189134,13.2495429 L8.91586931,13.2495429 C9.1603792,13.2495429 9.31177263,13.4570729 9.31177263,13.648639 L9.31177263,16.2667093 Z M8.91586931,12.7706276 L8.85189134,12.7706276 C8.67009254,12.7706276 8.48385962,12.8376758 8.32993241,12.9538926 L8.32993241,10.9034965 C8.32993241,10.7713159 8.2235136,10.6640389 8.09239042,10.6640389 C7.96126724,10.6640389 7.85484843,10.7713159 7.85484843,10.9034965 L7.85484843,16.969757 C7.85484843,17.1019376 7.96126724,17.2092146 8.09239042,17.2092146 C8.2235136,17.2092146 8.32993241,17.1019376 8.32993241,16.969757 L8.32993241,16.9691184 C8.46865693,17.0763955 8.64475472,17.1447207 8.85189134,17.1447207 L8.91586931,17.1447207 C9.33457666,17.1447207 9.7868566,16.80948 9.7868566,16.2667093 L9.7868566,13.648639 C9.7868566,13.226555 9.45429782,12.7706276 8.91586931,12.7706276 L8.91586931,12.7706276 Z" id="Fill-13"></path>
                        <path d="M11.0537472,14.3030289 L12.225621,14.3030289 L12.225621,13.329873 C12.225621,13.0144275 12.0153172,12.8024276 11.7023952,12.8024276 L11.5763396,12.8024276 C11.264051,12.8024276 11.0537472,13.0144275 11.0537472,13.329873 L11.0537472,14.3030289 Z M11.7023952,17.2090869 L11.5763396,17.2090869 C10.998004,17.2090869 10.5786632,16.7863644 10.5786632,16.2033648 L10.5786632,13.329873 C10.5786632,12.7462349 10.998004,12.3235123 11.5763396,12.3235123 L11.7023952,12.3235123 C12.2807308,12.3235123 12.700705,12.7462349 12.700705,13.329873 L12.700705,14.5424865 C12.700705,14.6746672 12.5942862,14.7819442 12.463163,14.7819442 L11.0537472,14.7819442 L11.0537472,16.2033648 C11.0537472,16.5181718 11.264051,16.7301716 11.5763396,16.7301716 L11.7023952,16.7301716 C12.0153172,16.7301716 12.225621,16.5181718 12.225621,16.2033648 L12.225621,15.819594 C12.225621,15.6874134 12.3320398,15.5801364 12.463163,15.5801364 C12.5942862,15.5801364 12.700705,15.6874134 12.700705,15.819594 L12.700705,16.2033648 C12.700705,16.7863644 12.2807308,17.2090869 11.7023952,17.2090869 L11.7023952,17.2090869 Z" id="Fill-15"></path>
                    </g>
                </g>
            </g>
        </g>
    </g>
</svg>